<svg xmlns="http://www.w3.org/2000/svg" version="1.0" width="225.000000pt" height="225.000000pt" viewBox="0 0 225.000000 225.000000" preserveAspectRatio="xMidYMid meet">

<g transform="translate(0.000000,225.000000) scale(0.100000,-0.100000)" fill="#f97415" stroke="none">
<path d="M551 2132 c-64 -90 -138 -394 -176 -715 -44 -387 -34 -1041 21 -1234 17 -63 43 -80 133 -89 l59 -7 23 74 c32 99 41 104 224 103 306 -2 446 -2 580 -1 181 2 192 -3 221 -98 l21 -70 60 2 c111 3 131 24 153 173 30 196 41 723 20 975 -30 363 -96 688 -173 845 -34 69 -66 89 -85 53 -5 -10 -13 -85 -16 -168 -10 -205 -24 -316 -43 -337 -20 -22 -44 -22 -130 -1 -104 26 -511 25 -644 -1 -53 -11 -103 -16 -112 -13 -9 3 -20 23 -26 44 -12 44 -31 285 -31 386 0 38 -5 77 -10 88 -15 27 -45 23 -69 -9z m189 -1366 c77 -20 250 -103 250 -119 0 -52 -266 -169 -339 -150 -28 7 -62 77 -68 138 -7 69 10 113 51 131 39 17 41 17 106 0z m885 0 c44 -19 55 -42 55 -113 0 -66 -27 -135 -59 -152 -31 -17 -111 4 -228 59 -112 53 -138 80 -101 104 56 36 247 114 286 115 7 1 28 -5 47 -13z" fill="#f97415"/>
</g>
</svg>